<svg version="1.1" id="Layer_1" xmlns="http://www.w3.org/2000/svg" xmlns:xlink="http://www.w3.org/1999/xlink" x="0px" y="0px"
	 width="100%" viewBox="0 0 512 512" enable-background="new 0 0 512 512" xml:space="preserve">
<path fill="#29ABE0" opacity="1.000000" stroke="none" 
	d="
M225.000000,1.000001 
	C246.020889,1.000000 267.041779,1.000000 288.218567,1.356759 
	C289.388336,2.140958 290.365356,2.771141 291.421997,2.963238 
	C298.782684,4.301408 306.213562,5.299043 313.521942,6.870752 
	C338.155670,12.168378 361.366302,21.154272 383.303986,33.625317 
	C399.537170,42.853493 414.935089,53.308445 428.356873,66.173790 
	C440.014221,77.347847 451.022827,89.352188 461.160492,101.923141 
	C477.502625,122.187874 489.521118,145.056381 498.257782,169.610565 
	C504.436096,186.974609 509.259033,204.657059 511.086212,223.071167 
	C511.155579,223.770523 512.336853,224.359558 513.000000,225.000000 
	C513.000000,246.020889 513.000000,267.041779 512.643188,288.218567 
	C511.198151,293.737823 510.022125,299.085144 509.036438,304.467346 
	C504.021362,331.851624 494.666687,357.604523 481.090332,381.955353 
	C466.042328,408.945709 446.549683,432.104492 423.278778,452.300873 
	C409.284027,464.446686 394.115631,474.884430 377.803070,483.493774 
	C350.566589,497.868378 321.775757,507.709015 290.976898,511.083313 
	C290.256592,511.162201 289.656281,512.336609 289.000000,513.000000 
	C267.979095,513.000000 246.958206,513.000000 225.782684,512.644226 
	C224.781281,511.862396 223.971710,511.182220 223.081635,511.051941 
	C217.746017,510.270905 212.323227,509.949371 207.055389,508.863708 
	C179.009415,503.083771 152.341843,493.354218 127.664009,478.859161 
	C102.579720,464.125336 80.643944,445.459503 61.675697,423.281555 
	C49.752190,409.340485 39.351997,394.389526 30.775509,378.247620 
	C16.234226,350.879272 6.348345,321.943634 2.916917,290.977722 
	C2.837004,290.256531 1.663443,289.656525 1.000001,289.000000 
	C1.000000,267.645782 1.000000,246.291550 1.342089,224.798096 
	C2.786993,219.467651 3.980724,214.293839 4.977387,209.082336 
	C10.171434,181.922943 19.366163,156.289932 32.887627,132.084290 
	C47.964363,105.094452 67.435600,81.917099 90.709450,61.712208 
	C104.575890,49.674244 119.631744,39.390739 135.757706,30.768045 
	C163.099136,16.148336 192.082916,6.410864 223.027679,2.917176 
	C223.748077,2.835843 224.345322,1.663471 225.000000,1.000001 
M413.705444,147.707748 
	C401.450165,141.900894 388.487518,139.335709 374.983154,139.334427 
	C283.497162,139.325653 192.011139,139.328629 100.525131,139.336716 
	C98.861565,139.336868 97.183609,139.327118 95.536781,139.525070 
	C84.794739,140.816177 77.140686,148.868744 77.123726,159.705368 
	C77.025108,222.695450 76.977127,285.686157 77.182190,348.675720 
	C77.224091,361.547607 82.948601,372.098206 93.180779,380.056061 
	C101.309937,386.378418 110.655014,388.480042 120.796677,388.467010 
	C182.953735,388.387207 245.110947,388.429108 307.268097,388.418274 
	C309.265717,388.417938 311.272858,388.387268 313.259430,388.199554 
	C330.096405,386.608795 342.019958,377.976532 348.000702,362.266418 
	C350.183777,356.532104 350.494171,349.949738 350.890778,343.705444 
	C351.360748,336.305847 351.001221,328.853577 351.001221,321.078735 
	C359.356293,321.078735 366.996277,321.090759 374.636230,321.076813 
	C423.572144,320.987366 460.889160,286.151276 464.393860,237.292953 
	C467.192688,198.275055 448.643188,165.155716 413.705444,147.707748 
z"/>
<path fill="none" opacity="1.000000" stroke="none" 
	d="
M513.000000,224.531342 
	C512.336853,224.359558 511.155579,223.770523 511.086212,223.071167 
	C509.259033,204.657059 504.436096,186.974609 498.257782,169.610565 
	C489.521118,145.056381 477.502625,122.187874 461.160492,101.923141 
	C451.022827,89.352188 440.014221,77.347847 428.356873,66.173790 
	C414.935089,53.308445 399.537170,42.853493 383.303986,33.625317 
	C361.366302,21.154272 338.155670,12.168378 313.521942,6.870752 
	C306.213562,5.299043 298.782684,4.301408 291.421997,2.963238 
	C290.365356,2.771141 289.388336,2.140958 288.687256,1.356759 
	C363.593719,1.000000 438.187408,1.000000 513.000000,1.000000 
	C513.000000,75.354088 513.000000,149.708389 513.000000,224.531342 
z"/>
<path fill="none" opacity="1.000000" stroke="none" 
	d="
M1.000001,289.468658 
	C1.663443,289.656525 2.837004,290.256531 2.916917,290.977722 
	C6.348345,321.943634 16.234226,350.879272 30.775509,378.247620 
	C39.351997,394.389526 49.752190,409.340485 61.675697,423.281555 
	C80.643944,445.459503 102.579720,464.125336 127.664009,478.859161 
	C152.341843,493.354218 179.009415,503.083771 207.055389,508.863708 
	C212.323227,509.949371 217.746017,510.270905 223.081635,511.051941 
	C223.971710,511.182220 224.781281,511.862396 225.314026,512.644226 
	C150.406296,513.000000 75.812599,513.000000 1.000000,513.000000 
	C1.000000,438.645905 1.000000,364.291626 1.000001,289.468658 
z"/>
<path fill="none" opacity="1.000000" stroke="none" 
	d="
M289.468628,513.000000 
	C289.656281,512.336609 290.256592,511.162201 290.976898,511.083313 
	C321.775757,507.709015 350.566589,497.868378 377.803070,483.493774 
	C394.115631,474.884430 409.284027,464.446686 423.278778,452.300873 
	C446.549683,432.104492 466.042328,408.945709 481.090332,381.955353 
	C494.666687,357.604523 504.021362,331.851624 509.036438,304.467346 
	C510.022125,299.085144 511.198151,293.737823 512.643188,288.687195 
	C513.000000,363.593719 513.000000,438.187408 513.000000,513.000000 
	C438.645905,513.000000 364.291626,513.000000 289.468628,513.000000 
z"/>
<path fill="none" opacity="1.000000" stroke="none" 
	d="
M224.531342,1.000001 
	C224.345322,1.663471 223.748077,2.835843 223.027679,2.917176 
	C192.082916,6.410864 163.099136,16.148336 135.757706,30.768045 
	C119.631744,39.390739 104.575890,49.674244 90.709450,61.712208 
	C67.435600,81.917099 47.964363,105.094452 32.887627,132.084290 
	C19.366163,156.289932 10.171434,181.922943 4.977387,209.082336 
	C3.980724,214.293839 2.786993,219.467651 1.342089,224.329437 
	C1.000000,149.739456 1.000000,75.478920 1.000000,1.000000 
	C75.354088,1.000000 149.708389,1.000000 224.531342,1.000001 
z"/>
<path fill="#FEFFFF" opacity="1.000000" stroke="none" 
	d="
M414.048248,147.861404 
	C448.643188,165.155716 467.192688,198.275055 464.393860,237.292953 
	C460.889160,286.151276 423.572144,320.987366 374.636230,321.076813 
	C366.996277,321.090759 359.356293,321.078735 351.001221,321.078735 
	C351.001221,328.853577 351.360748,336.305847 350.890778,343.705444 
	C350.494171,349.949738 350.183777,356.532104 348.000702,362.266418 
	C342.019958,377.976532 330.096405,386.608795 313.259430,388.199554 
	C311.272858,388.387268 309.265717,388.417938 307.268097,388.418274 
	C245.110947,388.429108 182.953735,388.387207 120.796677,388.467010 
	C110.655014,388.480042 101.309937,386.378418 93.180779,380.056061 
	C82.948601,372.098206 77.224091,361.547607 77.182190,348.675720 
	C76.977127,285.686157 77.025108,222.695450 77.123726,159.705368 
	C77.140686,148.868744 84.794739,140.816177 95.536781,139.525070 
	C97.183609,139.327118 98.861565,139.336868 100.525131,139.336716 
	C192.011139,139.328629 283.497162,139.325653 374.983154,139.334427 
	C388.487518,139.335709 401.450165,141.900894 414.048248,147.861404 
M128.393387,221.061050 
	C122.424797,240.371231 126.033798,257.857330 138.345169,273.727539 
	C158.242493,299.376617 183.171890,319.661499 208.645035,340.090088 
	C216.468903,333.673859 224.282700,327.482422 231.857010,321.010712 
	C249.485870,305.948151 266.582062,290.349396 280.390686,271.522064 
	C289.389801,259.252197 293.240601,245.594589 290.931274,230.552368 
	C288.468750,214.512131 280.917053,201.847275 264.684601,196.502701 
	C242.757416,189.283112 219.447998,199.467834 209.310898,220.184357 
	C209.128433,220.557251 208.753418,220.835922 208.273575,221.378784 
	C203.698639,209.404495 195.690491,201.081940 183.503525,197.562149 
	C157.876572,190.160645 137.691666,196.821457 128.393387,221.061050 
M351.000122,241.500000 
	C351.000122,252.252151 351.000122,263.004303 351.000122,273.971863 
	C359.577301,273.971863 367.397522,274.118347 375.210632,273.944000 
	C397.458557,273.447601 415.202332,256.626556 417.668854,233.847733 
	C419.896149,213.278748 405.570251,192.424103 384.722076,188.184021 
	C373.978760,185.999054 362.659332,186.646606 351.000122,185.979950 
	C351.000122,204.932724 351.000122,222.716354 351.000122,241.500000 
z"/>
<path fill="#FF5F5C" opacity="1.000000" stroke="none" 
	d="
M128.555161,220.701172 
	C137.691666,196.821457 157.876572,190.160645 183.503525,197.562149 
	C195.690491,201.081940 203.698639,209.404495 208.273575,221.378784 
	C208.753418,220.835922 209.128433,220.557251 209.310898,220.184357 
	C219.447998,199.467834 242.757416,189.283112 264.684601,196.502701 
	C280.917053,201.847275 288.468750,214.512131 290.931274,230.552368 
	C293.240601,245.594589 289.389801,259.252197 280.390686,271.522064 
	C266.582062,290.349396 249.485870,305.948151 231.857010,321.010712 
	C224.282700,327.482422 216.468903,333.673859 208.645035,340.090088 
	C183.171890,319.661499 158.242493,299.376617 138.345169,273.727539 
	C126.033798,257.857330 122.424797,240.371231 128.555161,220.701172 
z"/>
<path fill="#2AABE0" opacity="1.000000" stroke="none" 
	d="
M351.000122,241.000000 
	C351.000122,222.716354 351.000122,204.932724 351.000122,185.979950 
	C362.659332,186.646606 373.978760,185.999054 384.722076,188.184021 
	C405.570251,192.424103 419.896149,213.278748 417.668854,233.847733 
	C415.202332,256.626556 397.458557,273.447601 375.210632,273.944000 
	C367.397522,274.118347 359.577301,273.971863 351.000122,273.971863 
	C351.000122,263.004303 351.000122,252.252151 351.000122,241.000000 
z"/>
</svg>