<svg version="1.1" id="Layer_1" xmlns="http://www.w3.org/2000/svg" xmlns:xlink="http://www.w3.org/1999/xlink" x="0px" y="0px"
	 width="100%" viewBox="0 0 640 443" enable-background="new 0 0 640 443" xml:space="preserve">
<path fill="#FF0000" opacity="1.000000" stroke="none" 
	d="
M278.000000,0.999998 
	C303.687561,1.000000 329.375122,1.000000 355.355530,1.417519 
	C356.829926,2.222934 358.003662,2.923232 359.194122,2.952987 
	C388.223480,3.678571 417.254883,4.319722 446.285217,5.005912 
	C458.885162,5.303738 471.483521,5.667875 484.082611,6.001988 
	C484.582123,6.015235 485.083771,6.004445 485.580841,6.046863 
	C500.982544,7.361241 516.427490,8.309937 531.771240,10.117823 
	C543.902405,11.547181 556.226318,12.929576 567.903137,16.285990 
	C590.225464,22.702370 607.137634,36.710850 616.341370,58.234795 
	C620.634216,68.274178 622.914062,79.335052 624.921448,90.152809 
	C627.841675,105.890160 630.123596,121.778755 631.869995,137.691498 
	C633.468933,152.259888 634.867554,166.948746 634.820068,181.579544 
	C634.710083,215.444382 633.981995,249.316437 632.867981,283.164612 
	C632.371338,298.256531 630.658936,313.334991 628.910889,328.351166 
	C627.362793,341.649200 625.265930,354.899384 622.937439,368.086975 
	C619.089661,389.879333 607.307373,406.621552 589.302979,419.184692 
	C577.325378,427.542480 563.555664,431.079285 549.450378,432.836578 
	C529.087219,435.373474 508.627594,437.206879 488.173859,438.919067 
	C475.175354,440.007202 462.118835,440.503540 449.077545,440.953156 
	C433.818909,441.479187 418.549469,441.716003 403.282990,441.978363 
	C395.953217,442.104340 388.617493,441.917206 381.289642,442.090332 
	C380.178680,442.116577 379.095856,443.333710 378.000000,444.000000 
	C344.312439,444.000000 310.624878,444.000000 276.644470,443.582458 
	C275.170319,442.777039 273.997040,442.078735 272.806610,442.048218 
	C257.047394,441.644104 241.285110,441.361786 225.524963,440.991058 
	C213.261322,440.702606 200.998535,440.366364 188.737305,439.989136 
	C179.638275,439.709167 170.540298,439.375702 161.445724,438.977722 
	C155.343979,438.710724 149.234940,438.446625 143.153824,437.904663 
	C129.581146,436.695038 115.993698,435.560638 102.470535,433.916290 
	C92.771378,432.736938 83.002968,431.426086 73.556068,429.028748 
	C57.247013,424.890015 43.656956,416.084686 33.191662,402.702820 
	C26.578394,394.246552 21.652891,384.963226 18.987186,374.531036 
	C14.156837,355.627594 11.383917,336.408356 9.963395,316.962769 
	C8.752813,300.391022 6.798331,283.855621 6.147943,267.265930 
	C5.481634,250.270142 5.871184,233.226639 6.038952,216.206375 
	C6.182832,201.609650 6.406576,187.004410 7.072677,172.424744 
	C7.734141,157.946594 8.624455,143.458374 10.088223,129.042999 
	C11.641061,113.750420 13.951605,98.533646 15.994471,83.292252 
	C18.847185,62.008739 27.973360,44.124390 44.928978,30.595905 
	C52.634781,24.447628 60.899250,18.901564 70.687531,17.095400 
	C87.535912,13.986484 104.482582,11.299800 121.476166,9.124794 
	C134.029099,7.518146 146.712570,6.855965 159.355484,6.048498 
	C172.707245,5.195758 186.073059,4.372662 199.444870,4.065506 
	C223.863419,3.504601 248.290924,3.333613 272.714691,2.999978 
	C274.046936,2.981779 275.422699,3.151580 276.691162,2.857847 
	C277.241333,2.730439 277.570465,1.648422 278.000000,0.999998 
M324.789764,165.774017 
	C303.246307,153.404816 281.702881,141.035614 259.662598,128.381165 
	C259.662598,191.469208 259.662598,253.639923 259.662598,316.618408 
	C314.549011,285.125153 368.850464,253.967545 423.680298,222.506760 
	C390.586182,203.506088 358.014801,184.805542 324.789764,165.774017 
z"/>
<path fill="none" opacity="1.000000" stroke="none" 
	d="
M378.468658,444.000000 
	C379.095856,443.333710 380.178680,442.116577 381.289642,442.090332 
	C388.617493,441.917206 395.953217,442.104340 403.282990,441.978363 
	C418.549469,441.716003 433.818909,441.479187 449.077545,440.953156 
	C462.118835,440.503540 475.175354,440.007202 488.173859,438.919067 
	C508.627594,437.206879 529.087219,435.373474 549.450378,432.836578 
	C563.555664,431.079285 577.325378,427.542480 589.302979,419.184692 
	C607.307373,406.621552 619.089661,389.879333 622.937439,368.086975 
	C625.265930,354.899384 627.362793,341.649200 628.910889,328.351166 
	C630.658936,313.334991 632.371338,298.256531 632.867981,283.164612 
	C633.981995,249.316437 634.710083,215.444382 634.820068,181.579544 
	C634.867554,166.948746 633.468933,152.259888 631.869995,137.691498 
	C630.123596,121.778755 627.841675,105.890160 624.921448,90.152809 
	C622.914062,79.335052 620.634216,68.274178 616.341370,58.234795 
	C607.137634,36.710850 590.225464,22.702370 567.903137,16.285990 
	C556.226318,12.929576 543.902405,11.547181 531.771240,10.117823 
	C516.427490,8.309937 500.982544,7.361241 485.580841,6.046863 
	C485.083771,6.004445 484.582123,6.015235 484.082611,6.001988 
	C471.483521,5.667875 458.885162,5.303738 446.285217,5.005912 
	C417.254883,4.319722 388.223480,3.678571 359.194122,2.952987 
	C358.003662,2.923232 356.829926,2.222934 355.824219,1.417519 
	C450.958038,1.000000 545.916077,1.000000 640.937073,1.000000 
	C640.937073,148.559494 640.937073,296.119019 640.937073,444.000000 
	C553.646057,444.000000 466.291687,444.000000 378.468658,444.000000 
z"/>
<path fill="none" opacity="1.000000" stroke="none" 
	d="
M277.531342,0.999998 
	C277.570465,1.648422 277.241333,2.730439 276.691162,2.857847 
	C275.422699,3.151580 274.046936,2.981779 272.714691,2.999978 
	C248.290924,3.333613 223.863419,3.504601 199.444870,4.065506 
	C186.073059,4.372662 172.707245,5.195758 159.355484,6.048498 
	C146.712570,6.855965 134.029099,7.518146 121.476166,9.124794 
	C104.482582,11.299800 87.535912,13.986484 70.687531,17.095400 
	C60.899250,18.901564 52.634781,24.447628 44.928978,30.595905 
	C27.973360,44.124390 18.847185,62.008739 15.994471,83.292252 
	C13.951605,98.533646 11.641061,113.750420 10.088223,129.042999 
	C8.624455,143.458374 7.734141,157.946594 7.072677,172.424744 
	C6.406576,187.004410 6.182832,201.609650 6.038952,216.206375 
	C5.871184,233.226639 5.481634,250.270142 6.147943,267.265930 
	C6.798331,283.855621 8.752813,300.391022 9.963395,316.962769 
	C11.383917,336.408356 14.156837,355.627594 18.987186,374.531036 
	C21.652891,384.963226 26.578394,394.246552 33.191662,402.702820 
	C43.656956,416.084686 57.247013,424.890015 73.556068,429.028748 
	C83.002968,431.426086 92.771378,432.736938 102.470535,433.916290 
	C115.993698,435.560638 129.581146,436.695038 143.153824,437.904663 
	C149.234940,438.446625 155.343979,438.710724 161.445724,438.977722 
	C170.540298,439.375702 179.638275,439.709167 188.737305,439.989136 
	C200.998535,440.366364 213.261322,440.702606 225.524963,440.991058 
	C241.285110,441.361786 257.047394,441.644104 272.806610,442.048218 
	C273.997040,442.078735 275.170319,442.777039 276.175781,443.582458 
	C184.373627,444.000000 92.747246,444.000000 1.060435,444.000000 
	C1.060435,296.438538 1.060435,148.877060 1.060435,1.000000 
	C93.020653,1.000000 185.041672,1.000000 277.531342,0.999998 
z"/>
<path fill="#FFFDFD" opacity="1.000000" stroke="none" 
	d="
M325.116577,165.939514 
	C358.014801,184.805542 390.586182,203.506088 423.680298,222.506760 
	C368.850464,253.967545 314.549011,285.125153 259.662598,316.618408 
	C259.662598,253.639923 259.662598,191.469208 259.662598,128.381165 
	C281.702881,141.035614 303.246307,153.404816 325.116577,165.939514 
z"/>
</svg>