<svg version="1.1" id="Layer_1" xmlns="http://www.w3.org/2000/svg" xmlns:xlink="http://www.w3.org/1999/xlink" x="0px" y="0px"
	 width="100%" viewBox="0 0 320 320" enable-background="new 0 0 320 320" xml:space="preserve">
<path fill="#F96854" opacity="1.000000" stroke="none" 
	d="
M152.000000,321.000000 
	C101.333344,321.000000 51.166683,321.000000 1.000020,321.000000 
	C1.000013,214.333359 1.000013,107.666725 1.000007,1.000063 
	C107.666618,1.000042 214.333237,1.000042 320.999878,1.000021 
	C320.999939,107.666595 320.999939,214.333191 320.999969,320.999878 
	C264.833344,321.000000 208.666672,321.000000 152.000000,321.000000 
M242.905289,144.284454 
	C243.881729,105.691780 212.598175,76.906616 175.083893,81.879463 
	C144.205978,85.972603 122.524307,112.910538 123.931091,145.433182 
	C125.189224,174.519180 150.564911,199.518417 180.222107,200.889145 
	C212.883606,202.398727 239.290680,178.929367 242.905289,144.284454 
M106.126396,200.500031 
	C106.126396,160.801651 106.126396,121.103279 106.126396,81.356270 
	C96.049774,81.356270 86.795082,81.356270 77.293488,81.356270 
	C77.293488,134.605530 77.293488,187.598450 77.293488,240.682175 
	C86.976616,240.682175 96.365410,240.682175 106.126404,240.682175 
	C106.126404,227.413147 106.126404,214.456604 106.126396,200.500031 
z"/>
<path fill="#FFFEFE" opacity="1.000000" stroke="none" 
	d="
M242.886475,144.748596 
	C239.290680,178.929367 212.883606,202.398727 180.222107,200.889145 
	C150.564911,199.518417 125.189224,174.519180 123.931091,145.433182 
	C122.524307,112.910538 144.205978,85.972603 175.083893,81.879463 
	C212.598175,76.906616 243.881729,105.691780 242.886475,144.748596 
z"/>
<path fill="#052D49" opacity="1.000000" stroke="none" 
	d="
M106.126404,201.000031 
	C106.126404,214.456604 106.126404,227.413147 106.126404,240.682175 
	C96.365410,240.682175 86.976616,240.682175 77.293488,240.682175 
	C77.293488,187.598450 77.293488,134.605530 77.293488,81.356270 
	C86.795082,81.356270 96.049774,81.356270 106.126396,81.356270 
	C106.126396,121.103279 106.126396,160.801651 106.126404,201.000031 
z"/>
</svg>